<svg width="356pt" height="323pt"
 viewBox="0.00 0.00 356.00 323.00" xmlns="http://www.w3.org/2000/svg" xmlns:xlink="http://www.w3.org/1999/xlink">
<g id="graph0" class="graph" transform="scale(1 1) rotate(0) translate(4 319)">
<title>Workflow</title>
<polygon fill="white" stroke="transparent" points="-4,4 -4,-319 352,-319 352,4 -4,4"/>
<text text-anchor="middle" x="174" y="-296.6" font-family="Helvetica,sans-Serif" font-size="18.00">MenuPageDataCleanupWorkflow</text>
<g id="clust1" class="cluster">
<title>cluster_workflow_box_outer</title>
<polygon fill="none" stroke="black" stroke-width="2" points="8,-8 8,-253 340,-253 340,-8 8,-8"/>
</g>
<g id="clust2" class="cluster">
<title>cluster_workflow_box_inner</title>
<polygon fill="none" stroke="black" stroke-width="0" points="16,-16 16,-245 332,-245 332,-16 16,-16"/>
</g>
<!-- MenuPage.csv -->
<g id="node1" class="node">
<title>MenuPage.csv</title>
<path fill="#ffffcc" stroke="black" d="M97,-190.5C97,-190.5 251,-190.5 251,-190.5 257,-190.5 263,-196.5 263,-202.5 263,-202.5 263,-224.5 263,-224.5 263,-230.5 257,-236.5 251,-236.5 251,-236.5 97,-236.5 97,-236.5 91,-236.5 85,-230.5 85,-224.5 85,-224.5 85,-202.5 85,-202.5 85,-196.5 91,-190.5 97,-190.5"/>
<text text-anchor="middle" x="174" y="-221.3" font-family="Helvetica,sans-Serif" font-size="14.00">MenuPage.csv</text>
<polyline fill="none" stroke="black" points="85,-213.5 263,-213.5 "/>
<text text-anchor="middle" x="174" y="-198.3" font-family="Helvetica,sans-Serif" font-size="14.00">file://project/MenuPage.cv</text>
</g>
<!-- cleaned_menu_page_with_or.csv -->
<g id="node2" class="node">
<title>cleaned_menu_page_with_or.csv</title>
<path fill="#ffffcc" stroke="black" d="M36,-107.5C36,-107.5 312,-107.5 312,-107.5 318,-107.5 324,-113.5 324,-119.5 324,-119.5 324,-141.5 324,-141.5 324,-147.5 318,-153.5 312,-153.5 312,-153.5 36,-153.5 36,-153.5 30,-153.5 24,-147.5 24,-141.5 24,-141.5 24,-119.5 24,-119.5 24,-113.5 30,-107.5 36,-107.5"/>
<text text-anchor="middle" x="174" y="-138.3" font-family="Helvetica,sans-Serif" font-size="14.00">cleaned_menu_page_with_or.csv</text>
<polyline fill="none" stroke="black" points="24,-130.5 324,-130.5 "/>
<text text-anchor="middle" x="174" y="-115.3" font-family="Helvetica,sans-Serif" font-size="14.00">file://project/cleaned_menu_page_with_or.csv</text>
</g>
<!-- MenuPage.csv&#45;&gt;cleaned_menu_page_with_or.csv -->
<g id="edge1" class="edge">
<title>MenuPage.csv&#45;&gt;cleaned_menu_page_with_or.csv</title>
<path fill="none" stroke="black" d="M174,-190.37C174,-182.15 174,-172.66 174,-163.73"/>
<polygon fill="black" stroke="black" points="177.5,-163.61 174,-153.61 170.5,-163.61 177.5,-163.61"/>
</g>
<!-- menu_page -->
<g id="node3" class="node">
<title>menu_page</title>
<path fill="#ffffcc" stroke="black" d="M78,-24.5C78,-24.5 270,-24.5 270,-24.5 276,-24.5 282,-30.5 282,-36.5 282,-36.5 282,-58.5 282,-58.5 282,-64.5 276,-70.5 270,-70.5 270,-70.5 78,-70.5 78,-70.5 72,-70.5 66,-64.5 66,-58.5 66,-58.5 66,-36.5 66,-36.5 66,-30.5 72,-24.5 78,-24.5"/>
<text text-anchor="middle" x="174" y="-55.3" font-family="Helvetica,sans-Serif" font-size="14.00">menu_page</text>
<polyline fill="none" stroke="black" points="66,-47.5 282,-47.5 "/>
<text text-anchor="middle" x="174" y="-32.3" font-family="Helvetica,sans-Serif" font-size="14.00">sqlite://database.db/menu_page</text>
</g>
<!-- cleaned_menu_page_with_or.csv&#45;&gt;menu_page -->
<g id="edge2" class="edge">
<title>cleaned_menu_page_with_or.csv&#45;&gt;menu_page</title>
<path fill="none" stroke="black" d="M174,-107.37C174,-99.15 174,-89.66 174,-80.73"/>
<polygon fill="black" stroke="black" points="177.5,-80.61 174,-70.61 170.5,-80.61 177.5,-80.61"/>
</g>
<!-- MenuPage.csv_input_port -->
<g id="node4" class="node">
<title>MenuPage.csv_input_port</title>
<ellipse fill="#ffffff" stroke="black" cx="174" cy="-280" rx="7" ry="7"/>
</g>
<!-- MenuPage.csv_input_port&#45;&gt;MenuPage.csv -->
<g id="edge3" class="edge">
<title>MenuPage.csv_input_port&#45;&gt;MenuPage.csv</title>
<path fill="none" stroke="black" d="M174,-272.58C174,-266.38 174,-256.52 174,-246.66"/>
<polygon fill="black" stroke="black" points="177.5,-246.55 174,-236.55 170.5,-246.55 177.5,-246.55"/>
</g>
</g>
</svg>