<svg width="388pt" height="432pt"
 viewBox="0.00 0.00 388.00 432.00" xmlns="http://www.w3.org/2000/svg" xmlns:xlink="http://www.w3.org/1999/xlink">
<g id="graph0" class="graph" transform="scale(1 1) rotate(0) translate(4 428)">
<title>Workflow</title>
<polygon fill="white" stroke="transparent" points="-4,4 -4,-428 384,-428 384,4 -4,4"/>
<text text-anchor="middle" x="190" y="-405.6" font-family="Helvetica,sans-Serif" font-size="18.00">MenuItemDataCleanupWorkflow</text>
<g id="clust1" class="cluster">
<title>cluster_workflow_box_outer</title>
<polygon fill="none" stroke="black" stroke-width="2" points="8,-34 8,-362 372,-362 372,-34 8,-34"/>
</g>
<g id="clust2" class="cluster">
<title>cluster_workflow_box_inner</title>
<polygon fill="none" stroke="black" stroke-width="0" points="16,-42 16,-354 364,-354 364,-42 16,-42"/>
</g>
<!-- MenuItem.csv -->
<g id="node1" class="node">
<title>MenuItem.csv</title>
<path fill="#ffffcc" stroke="black" d="M112.5,-299.5C112.5,-299.5 267.5,-299.5 267.5,-299.5 273.5,-299.5 279.5,-305.5 279.5,-311.5 279.5,-311.5 279.5,-333.5 279.5,-333.5 279.5,-339.5 273.5,-345.5 267.5,-345.5 267.5,-345.5 112.5,-345.5 112.5,-345.5 106.5,-345.5 100.5,-339.5 100.5,-333.5 100.5,-333.5 100.5,-311.5 100.5,-311.5 100.5,-305.5 106.5,-299.5 112.5,-299.5"/>
<text text-anchor="middle" x="190" y="-330.3" font-family="Helvetica,sans-Serif" font-size="14.00">MenuItem.csv</text>
<polyline fill="none" stroke="black" points="100.5,-322.5 279.5,-322.5 "/>
<text text-anchor="middle" x="190" y="-307.3" font-family="Helvetica,sans-Serif" font-size="14.00">file://project/MenuItem.csv</text>
</g>
<!-- cleaned_menu_item_with_or.csv -->
<g id="node2" class="node">
<title>cleaned_menu_item_with_or.csv</title>
<path fill="#ffffcc" stroke="black" d="M36,-216.5C36,-216.5 344,-216.5 344,-216.5 350,-216.5 356,-222.5 356,-228.5 356,-228.5 356,-250.5 356,-250.5 356,-256.5 350,-262.5 344,-262.5 344,-262.5 36,-262.5 36,-262.5 30,-262.5 24,-256.5 24,-250.5 24,-250.5 24,-228.5 24,-228.5 24,-222.5 30,-216.5 36,-216.5"/>
<text text-anchor="middle" x="190" y="-247.3" font-family="Helvetica,sans-Serif" font-size="14.00">cleaned_menu_item_with_or.csv</text>
<polyline fill="none" stroke="black" points="24,-239.5 356,-239.5 "/>
<text text-anchor="middle" x="190" y="-224.3" font-family="Helvetica,sans-Serif" font-size="14.00">file://project/clean/cleaned_menu_item_with_or.csv</text>
</g>
<!-- MenuItem.csv&#45;&gt;cleaned_menu_item_with_or.csv -->
<g id="edge1" class="edge">
<title>MenuItem.csv&#45;&gt;cleaned_menu_item_with_or.csv</title>
<path fill="none" stroke="black" d="M190,-299.37C190,-291.15 190,-281.66 190,-272.73"/>
<polygon fill="black" stroke="black" points="193.5,-272.61 190,-262.61 186.5,-272.61 193.5,-272.61"/>
</g>
<!-- menu_item -->
<g id="node3" class="node">
<title>menu_item</title>
<path fill="#ffffcc" stroke="black" d="M96.5,-133.5C96.5,-133.5 283.5,-133.5 283.5,-133.5 289.5,-133.5 295.5,-139.5 295.5,-145.5 295.5,-145.5 295.5,-167.5 295.5,-167.5 295.5,-173.5 289.5,-179.5 283.5,-179.5 283.5,-179.5 96.5,-179.5 96.5,-179.5 90.5,-179.5 84.5,-173.5 84.5,-167.5 84.5,-167.5 84.5,-145.5 84.5,-145.5 84.5,-139.5 90.5,-133.5 96.5,-133.5"/>
<text text-anchor="middle" x="190" y="-164.3" font-family="Helvetica,sans-Serif" font-size="14.00">menu_item</text>
<polyline fill="none" stroke="black" points="84.5,-156.5 295.5,-156.5 "/>
<text text-anchor="middle" x="190" y="-141.3" font-family="Helvetica,sans-Serif" font-size="14.00">sqlite://database.db/menu_item</text>
</g>
<!-- cleaned_menu_item_with_or.csv&#45;&gt;menu_item -->
<g id="edge2" class="edge">
<title>cleaned_menu_item_with_or.csv&#45;&gt;menu_item</title>
<path fill="none" stroke="black" d="M190,-216.37C190,-208.15 190,-198.66 190,-189.73"/>
<polygon fill="black" stroke="black" points="193.5,-189.61 190,-179.61 186.5,-189.61 193.5,-189.61"/>
</g>
<!-- cleaned_menu_item -->
<g id="node4" class="node">
<title>cleaned_menu_item</title>
<path fill="#ffffcc" stroke="black" d="M68,-50.5C68,-50.5 312,-50.5 312,-50.5 318,-50.5 324,-56.5 324,-62.5 324,-62.5 324,-84.5 324,-84.5 324,-90.5 318,-96.5 312,-96.5 312,-96.5 68,-96.5 68,-96.5 62,-96.5 56,-90.5 56,-84.5 56,-84.5 56,-62.5 56,-62.5 56,-56.5 62,-50.5 68,-50.5"/>
<text text-anchor="middle" x="190" y="-81.3" font-family="Helvetica,sans-Serif" font-size="14.00">cleaned_menu_item</text>
<polyline fill="none" stroke="black" points="56,-73.5 324,-73.5 "/>
<text text-anchor="middle" x="190" y="-58.3" font-family="Helvetica,sans-Serif" font-size="14.00">sqlite://database.db/cleaned_menu_item</text>
</g>
<!-- menu_item&#45;&gt;cleaned_menu_item -->
<g id="edge3" class="edge">
<title>menu_item&#45;&gt;cleaned_menu_item</title>
<path fill="none" stroke="black" d="M190,-133.37C190,-125.15 190,-115.66 190,-106.73"/>
<polygon fill="black" stroke="black" points="193.5,-106.61 190,-96.61 186.5,-106.61 193.5,-106.61"/>
</g>
<!-- cleaned_menu_item_output_port -->
<g id="node6" class="node">
<title>cleaned_menu_item_output_port</title>
<ellipse fill="#ffffff" stroke="black" cx="190" cy="-7" rx="7" ry="7"/>
</g>
<!-- cleaned_menu_item&#45;&gt;cleaned_menu_item_output_port -->
<g id="edge5" class="edge">
<title>cleaned_menu_item&#45;&gt;cleaned_menu_item_output_port</title>
<path fill="none" stroke="black" d="M190,-50.3C190,-41.68 190,-32 190,-24.08"/>
<polygon fill="black" stroke="black" points="193.5,-24.05 190,-14.05 186.5,-24.05 193.5,-24.05"/>
</g>
<!-- MenuItem.csv_input_port -->
<g id="node5" class="node">
<title>MenuItem.csv_input_port</title>
<ellipse fill="#ffffff" stroke="black" cx="190" cy="-389" rx="7" ry="7"/>
</g>
<!-- MenuItem.csv_input_port&#45;&gt;MenuItem.csv -->
<g id="edge4" class="edge">
<title>MenuItem.csv_input_port&#45;&gt;MenuItem.csv</title>
<path fill="none" stroke="black" d="M190,-381.58C190,-375.38 190,-365.52 190,-355.66"/>
<polygon fill="black" stroke="black" points="193.5,-355.55 190,-345.55 186.5,-355.55 193.5,-355.55"/>
</g>
</g>
</svg>