<svg width="586pt" height="644pt"
 viewBox="0.00 0.00 586.00 644.00" xmlns="http://www.w3.org/2000/svg" xmlns:xlink="http://www.w3.org/1999/xlink">
<g id="graph0" class="graph" transform="scale(1 1) rotate(0) translate(4 640)">
<title>Workflow</title>
<polygon fill="white" stroke="transparent" points="-4,4 -4,-640 582,-640 582,4 -4,4"/>
<text text-anchor="middle" x="289" y="-617.6" font-family="Helvetica,sans-Serif" font-size="18.00">MenuPageDataCleanupWorkflow</text>
<g id="clust1" class="cluster">
<title>cluster_workflow_box_outer</title>
<polygon fill="none" stroke="black" stroke-width="2" points="8,-8 8,-574 570,-574 570,-8 8,-8"/>
</g>
<g id="clust2" class="cluster">
<title>cluster_workflow_box_inner</title>
<polygon fill="none" stroke="black" stroke-width="0" points="16,-16 16,-566 562,-566 562,-16 16,-16"/>
</g>
<!-- MenuPageDataCleanupWithOpenrRefine -->
<g id="node1" class="node">
<title>MenuPageDataCleanupWithOpenrRefine</title>
<polygon fill="#ccffcc" stroke="black" points="224,-428.5 224,-474.5 514,-474.5 514,-428.5 224,-428.5"/>
<text text-anchor="middle" x="369" y="-459.3" font-family="Helvetica,sans-Serif" font-size="14.00">MenuPageDataCleanupWithOpenrRefine</text>
<polyline fill="none" stroke="black" points="224,-451.5 514,-451.5 "/>
<text text-anchor="middle" x="369" y="-436.3" font-family="Helvetica,sans-Serif" font-size="14.00">Clean MenuPage dataset using OpenRefine</text>
</g>
<!-- cleaned_menu_page_with_or.csv -->
<g id="node5" class="node">
<title>cleaned_menu_page_with_or.csv</title>
<path fill="#ffffcc" stroke="black" d="M231,-345.5C231,-345.5 507,-345.5 507,-345.5 513,-345.5 519,-351.5 519,-357.5 519,-357.5 519,-379.5 519,-379.5 519,-385.5 513,-391.5 507,-391.5 507,-391.5 231,-391.5 231,-391.5 225,-391.5 219,-385.5 219,-379.5 219,-379.5 219,-357.5 219,-357.5 219,-351.5 225,-345.5 231,-345.5"/>
<text text-anchor="middle" x="369" y="-376.3" font-family="Helvetica,sans-Serif" font-size="14.00">cleaned_menu_page_with_or.csv</text>
<polyline fill="none" stroke="black" points="219,-368.5 519,-368.5 "/>
<text text-anchor="middle" x="369" y="-353.3" font-family="Helvetica,sans-Serif" font-size="14.00">file://project/cleaned_menu_page_with_or.csv</text>
</g>
<!-- MenuPageDataCleanupWithOpenrRefine&#45;&gt;cleaned_menu_page_with_or.csv -->
<g id="edge1" class="edge">
<title>MenuPageDataCleanupWithOpenrRefine&#45;&gt;cleaned_menu_page_with_or.csv</title>
<path fill="none" stroke="black" d="M369,-428.37C369,-420.15 369,-410.66 369,-401.73"/>
<polygon fill="black" stroke="black" points="372.5,-401.61 369,-391.61 365.5,-401.61 372.5,-401.61"/>
</g>
<!-- LoadMenuPageDataIntoSqlite -->
<g id="node2" class="node">
<title>LoadMenuPageDataIntoSqlite</title>
<polygon fill="#ccffcc" stroke="black" points="107.5,-262.5 107.5,-308.5 544.5,-308.5 544.5,-262.5 107.5,-262.5"/>
<text text-anchor="middle" x="326" y="-293.3" font-family="Helvetica,sans-Serif" font-size="14.00">LoadMenuPageDataIntoSqlite</text>
<polyline fill="none" stroke="black" points="107.5,-285.5 544.5,-285.5 "/>
<text text-anchor="middle" x="326" y="-270.3" font-family="Helvetica,sans-Serif" font-size="14.00">Load cleaned_menu_page_with_or.csv into Sqlite table menu_page</text>
</g>
<!-- menu_page -->
<g id="node6" class="node">
<title>menu_page</title>
<path fill="#ffffcc" stroke="black" d="M230,-179.5C230,-179.5 422,-179.5 422,-179.5 428,-179.5 434,-185.5 434,-191.5 434,-191.5 434,-213.5 434,-213.5 434,-219.5 428,-225.5 422,-225.5 422,-225.5 230,-225.5 230,-225.5 224,-225.5 218,-219.5 218,-213.5 218,-213.5 218,-191.5 218,-191.5 218,-185.5 224,-179.5 230,-179.5"/>
<text text-anchor="middle" x="326" y="-210.3" font-family="Helvetica,sans-Serif" font-size="14.00">menu_page</text>
<polyline fill="none" stroke="black" points="218,-202.5 434,-202.5 "/>
<text text-anchor="middle" x="326" y="-187.3" font-family="Helvetica,sans-Serif" font-size="14.00">sqlite://database.db/menu_page</text>
</g>
<!-- LoadMenuPageDataIntoSqlite&#45;&gt;menu_page -->
<g id="edge3" class="edge">
<title>LoadMenuPageDataIntoSqlite&#45;&gt;menu_page</title>
<path fill="none" stroke="black" d="M326,-262.37C326,-254.15 326,-244.66 326,-235.73"/>
<polygon fill="black" stroke="black" points="329.5,-235.61 326,-225.61 322.5,-235.61 329.5,-235.61"/>
</g>
<!-- MenuPageDataCleanupWithSQL -->
<g id="node3" class="node">
<title>MenuPageDataCleanupWithSQL</title>
<polygon fill="#ccffcc" stroke="black" points="24,-96.5 24,-142.5 554,-142.5 554,-96.5 24,-96.5"/>
<text text-anchor="middle" x="289" y="-127.3" font-family="Helvetica,sans-Serif" font-size="14.00">MenuPageDataCleanupWithSQL</text>
<polyline fill="none" stroke="black" points="24,-119.5 554,-119.5 "/>
<text text-anchor="middle" x="289" y="-104.3" font-family="Helvetica,sans-Serif" font-size="14.00">Perform SQL operations to check integrity constraints and functional dependencies</text>
</g>
<!-- cleaned_menu_page -->
<g id="node8" class="node">
<title>cleaned_menu_page</title>
<path fill="#fcfcfc" stroke="black" d="M350.5,-60C350.5,-60 227.5,-60 227.5,-60 221.5,-60 215.5,-54 215.5,-48 215.5,-48 215.5,-36 215.5,-36 215.5,-30 221.5,-24 227.5,-24 227.5,-24 350.5,-24 350.5,-24 356.5,-24 362.5,-30 362.5,-36 362.5,-36 362.5,-48 362.5,-48 362.5,-54 356.5,-60 350.5,-60"/>
<text text-anchor="middle" x="289" y="-38.3" font-family="Helvetica,sans-Serif" font-size="14.00">cleaned_menu_page</text>
</g>
<!-- MenuPageDataCleanupWithSQL&#45;&gt;cleaned_menu_page -->
<g id="edge6" class="edge">
<title>MenuPageDataCleanupWithSQL&#45;&gt;cleaned_menu_page</title>
<path fill="none" stroke="black" d="M289,-96.26C289,-88.18 289,-78.96 289,-70.49"/>
<polygon fill="black" stroke="black" points="292.5,-70.3 289,-60.3 285.5,-70.3 292.5,-70.3"/>
</g>
<!-- MenuPage.csv -->
<g id="node4" class="node">
<title>MenuPage.csv</title>
<path fill="#ffffcc" stroke="black" d="M292,-511.5C292,-511.5 446,-511.5 446,-511.5 452,-511.5 458,-517.5 458,-523.5 458,-523.5 458,-545.5 458,-545.5 458,-551.5 452,-557.5 446,-557.5 446,-557.5 292,-557.5 292,-557.5 286,-557.5 280,-551.5 280,-545.5 280,-545.5 280,-523.5 280,-523.5 280,-517.5 286,-511.5 292,-511.5"/>
<text text-anchor="middle" x="369" y="-542.3" font-family="Helvetica,sans-Serif" font-size="14.00">MenuPage.csv</text>
<polyline fill="none" stroke="black" points="280,-534.5 458,-534.5 "/>
<text text-anchor="middle" x="369" y="-519.3" font-family="Helvetica,sans-Serif" font-size="14.00">file://project/MenuPage.cv</text>
</g>
<!-- MenuPage.csv&#45;&gt;MenuPageDataCleanupWithOpenrRefine -->
<g id="edge2" class="edge">
<title>MenuPage.csv&#45;&gt;MenuPageDataCleanupWithOpenrRefine</title>
<path fill="none" stroke="black" d="M369,-511.37C369,-503.15 369,-493.66 369,-484.73"/>
<polygon fill="black" stroke="black" points="372.5,-484.61 369,-474.61 365.5,-484.61 372.5,-484.61"/>
</g>
<!-- cleaned_menu_page_with_or.csv&#45;&gt;LoadMenuPageDataIntoSqlite -->
<g id="edge4" class="edge">
<title>cleaned_menu_page_with_or.csv&#45;&gt;LoadMenuPageDataIntoSqlite</title>
<path fill="none" stroke="black" d="M357.25,-345.37C352.7,-336.79 347.41,-326.83 342.49,-317.56"/>
<polygon fill="black" stroke="black" points="345.52,-315.8 337.74,-308.61 339.33,-319.08 345.52,-315.8"/>
</g>
<!-- menu_page&#45;&gt;MenuPageDataCleanupWithSQL -->
<g id="edge7" class="edge">
<title>menu_page&#45;&gt;MenuPageDataCleanupWithSQL</title>
<path fill="none" stroke="black" d="M315.89,-179.37C312.01,-170.88 307.52,-161.04 303.32,-151.85"/>
<polygon fill="black" stroke="black" points="306.44,-150.25 299.1,-142.61 300.07,-153.16 306.44,-150.25"/>
</g>
<!-- data_load_script -->
<g id="node7" class="node">
<title>data_load_script</title>
<path fill="#fcfcfc" stroke="black" d="M188.5,-386.5C188.5,-386.5 93.5,-386.5 93.5,-386.5 87.5,-386.5 81.5,-380.5 81.5,-374.5 81.5,-374.5 81.5,-362.5 81.5,-362.5 81.5,-356.5 87.5,-350.5 93.5,-350.5 93.5,-350.5 188.5,-350.5 188.5,-350.5 194.5,-350.5 200.5,-356.5 200.5,-362.5 200.5,-362.5 200.5,-374.5 200.5,-374.5 200.5,-380.5 194.5,-386.5 188.5,-386.5"/>
<text text-anchor="middle" x="141" y="-364.8" font-family="Helvetica,sans-Serif" font-size="14.00">data_load_script</text>
</g>
<!-- data_load_script&#45;&gt;LoadMenuPageDataIntoSqlite -->
<g id="edge5" class="edge">
<title>data_load_script&#45;&gt;LoadMenuPageDataIntoSqlite</title>
<path fill="none" stroke="black" d="M180.23,-350.32C205.2,-339.39 238.02,-325.02 266.2,-312.68"/>
<polygon fill="black" stroke="black" points="267.8,-315.8 275.55,-308.59 264.99,-309.39 267.8,-315.8"/>
</g>
<!-- data_cleanup_sql_script -->
<g id="node9" class="node">
<title>data_cleanup_sql_script</title>
<path fill="#fcfcfc" stroke="black" d="M187.5,-220.5C187.5,-220.5 44.5,-220.5 44.5,-220.5 38.5,-220.5 32.5,-214.5 32.5,-208.5 32.5,-208.5 32.5,-196.5 32.5,-196.5 32.5,-190.5 38.5,-184.5 44.5,-184.5 44.5,-184.5 187.5,-184.5 187.5,-184.5 193.5,-184.5 199.5,-190.5 199.5,-196.5 199.5,-196.5 199.5,-208.5 199.5,-208.5 199.5,-214.5 193.5,-220.5 187.5,-220.5"/>
<text text-anchor="middle" x="116" y="-198.8" font-family="Helvetica,sans-Serif" font-size="14.00">data_cleanup_sql_script</text>
</g>
<!-- data_cleanup_sql_script&#45;&gt;MenuPageDataCleanupWithSQL -->
<g id="edge8" class="edge">
<title>data_cleanup_sql_script&#45;&gt;MenuPageDataCleanupWithSQL</title>
<path fill="none" stroke="black" d="M152.69,-184.32C175.93,-173.44 206.46,-159.15 232.73,-146.85"/>
<polygon fill="black" stroke="black" points="234.25,-150 241.83,-142.59 231.29,-143.66 234.25,-150"/>
</g>
<!-- MenuPage.csv_input_port -->
<g id="node10" class="node">
<title>MenuPage.csv_input_port</title>
<ellipse fill="#ffffff" stroke="black" cx="369" cy="-601" rx="7" ry="7"/>
</g>
<!-- MenuPage.csv_input_port&#45;&gt;MenuPage.csv -->
<g id="edge9" class="edge">
<title>MenuPage.csv_input_port&#45;&gt;MenuPage.csv</title>
<path fill="none" stroke="black" d="M369,-593.58C369,-587.38 369,-577.52 369,-567.66"/>
<polygon fill="black" stroke="black" points="372.5,-567.55 369,-557.55 365.5,-567.55 372.5,-567.55"/>
</g>
</g>
</svg>