<svg width="586pt" height="681pt"
 viewBox="0.00 0.00 586.00 681.00" xmlns="http://www.w3.org/2000/svg" xmlns:xlink="http://www.w3.org/1999/xlink">
<g id="graph0" class="graph" transform="scale(1 1) rotate(0) translate(4 677)">
<title>Workflow</title>
<polygon fill="white" stroke="transparent" points="-4,4 -4,-677 582,-677 582,4 -4,4"/>
<text text-anchor="middle" x="289" y="-654.6" font-family="Helvetica,sans-Serif" font-size="18.00">MenuItemDataCleanupWorkflow</text>
<g id="clust1" class="cluster">
<title>cluster_workflow_box_outer</title>
<polygon fill="none" stroke="black" stroke-width="2" points="8,-34 8,-611 570,-611 570,-34 8,-34"/>
</g>
<g id="clust2" class="cluster">
<title>cluster_workflow_box_inner</title>
<polygon fill="none" stroke="black" stroke-width="0" points="16,-42 16,-603 562,-603 562,-42 16,-42"/>
</g>
<!-- MenuItemDataCleanupWithOpenRefine -->
<g id="node1" class="node">
<title>MenuItemDataCleanupWithOpenRefine</title>
<polygon fill="#ccffcc" stroke="black" points="215.5,-465.5 215.5,-511.5 500.5,-511.5 500.5,-465.5 215.5,-465.5"/>
<text text-anchor="middle" x="358" y="-496.3" font-family="Helvetica,sans-Serif" font-size="14.00">MenuItemDataCleanupWithOpenRefine</text>
<polyline fill="none" stroke="black" points="215.5,-488.5 500.5,-488.5 "/>
<text text-anchor="middle" x="358" y="-473.3" font-family="Helvetica,sans-Serif" font-size="14.00">Clean MenuItem dataset using OpenRefine</text>
</g>
<!-- cleaned_menu_item_with_or.csv -->
<g id="node5" class="node">
<title>cleaned_menu_item_with_or.csv</title>
<path fill="#ffffcc" stroke="black" d="M204,-382.5C204,-382.5 512,-382.5 512,-382.5 518,-382.5 524,-388.5 524,-394.5 524,-394.5 524,-416.5 524,-416.5 524,-422.5 518,-428.5 512,-428.5 512,-428.5 204,-428.5 204,-428.5 198,-428.5 192,-422.5 192,-416.5 192,-416.5 192,-394.5 192,-394.5 192,-388.5 198,-382.5 204,-382.5"/>
<text text-anchor="middle" x="358" y="-413.3" font-family="Helvetica,sans-Serif" font-size="14.00">cleaned_menu_item_with_or.csv</text>
<polyline fill="none" stroke="black" points="192,-405.5 524,-405.5 "/>
<text text-anchor="middle" x="358" y="-390.3" font-family="Helvetica,sans-Serif" font-size="14.00">file://project/clean/cleaned_menu_item_with_or.csv</text>
</g>
<!-- MenuItemDataCleanupWithOpenRefine&#45;&gt;cleaned_menu_item_with_or.csv -->
<g id="edge1" class="edge">
<title>MenuItemDataCleanupWithOpenRefine&#45;&gt;cleaned_menu_item_with_or.csv</title>
<path fill="none" stroke="black" d="M358,-465.37C358,-457.15 358,-447.66 358,-438.73"/>
<polygon fill="black" stroke="black" points="361.5,-438.61 358,-428.61 354.5,-438.61 361.5,-438.61"/>
</g>
<!-- LoadMenuItemDataIntoSqlite -->
<g id="node2" class="node">
<title>LoadMenuItemDataIntoSqlite</title>
<polygon fill="#ccffcc" stroke="black" points="144,-299.5 144,-345.5 528,-345.5 528,-299.5 144,-299.5"/>
<text text-anchor="middle" x="336" y="-330.3" font-family="Helvetica,sans-Serif" font-size="14.00">LoadMenuItemDataIntoSqlite</text>
<polyline fill="none" stroke="black" points="144,-322.5 528,-322.5 "/>
<text text-anchor="middle" x="336" y="-307.3" font-family="Helvetica,sans-Serif" font-size="14.00">Load cleaned_dish_with_or.csv into Sqlite table menu_item</text>
</g>
<!-- menu_item -->
<g id="node6" class="node">
<title>menu_item</title>
<path fill="#ffffcc" stroke="black" d="M242.5,-216.5C242.5,-216.5 429.5,-216.5 429.5,-216.5 435.5,-216.5 441.5,-222.5 441.5,-228.5 441.5,-228.5 441.5,-250.5 441.5,-250.5 441.5,-256.5 435.5,-262.5 429.5,-262.5 429.5,-262.5 242.5,-262.5 242.5,-262.5 236.5,-262.5 230.5,-256.5 230.5,-250.5 230.5,-250.5 230.5,-228.5 230.5,-228.5 230.5,-222.5 236.5,-216.5 242.5,-216.5"/>
<text text-anchor="middle" x="336" y="-247.3" font-family="Helvetica,sans-Serif" font-size="14.00">menu_item</text>
<polyline fill="none" stroke="black" points="230.5,-239.5 441.5,-239.5 "/>
<text text-anchor="middle" x="336" y="-224.3" font-family="Helvetica,sans-Serif" font-size="14.00">sqlite://database.db/menu_item</text>
</g>
<!-- LoadMenuItemDataIntoSqlite&#45;&gt;menu_item -->
<g id="edge3" class="edge">
<title>LoadMenuItemDataIntoSqlite&#45;&gt;menu_item</title>
<path fill="none" stroke="black" d="M336,-299.37C336,-291.15 336,-281.66 336,-272.73"/>
<polygon fill="black" stroke="black" points="339.5,-272.61 336,-262.61 332.5,-272.61 339.5,-272.61"/>
</g>
<!-- MenuItemDataCleanupWithSQL -->
<g id="node3" class="node">
<title>MenuItemDataCleanupWithSQL</title>
<polygon fill="#ccffcc" stroke="black" points="24,-133.5 24,-179.5 554,-179.5 554,-133.5 24,-133.5"/>
<text text-anchor="middle" x="289" y="-164.3" font-family="Helvetica,sans-Serif" font-size="14.00">MenuItemDataCleanupWithSQL</text>
<polyline fill="none" stroke="black" points="24,-156.5 554,-156.5 "/>
<text text-anchor="middle" x="289" y="-141.3" font-family="Helvetica,sans-Serif" font-size="14.00">Perform SQL operations to check integrity constraints and functional dependencies</text>
</g>
<!-- cleaned_menu_item -->
<g id="node7" class="node">
<title>cleaned_menu_item</title>
<path fill="#ffffcc" stroke="black" d="M167,-50.5C167,-50.5 411,-50.5 411,-50.5 417,-50.5 423,-56.5 423,-62.5 423,-62.5 423,-84.5 423,-84.5 423,-90.5 417,-96.5 411,-96.5 411,-96.5 167,-96.5 167,-96.5 161,-96.5 155,-90.5 155,-84.5 155,-84.5 155,-62.5 155,-62.5 155,-56.5 161,-50.5 167,-50.5"/>
<text text-anchor="middle" x="289" y="-81.3" font-family="Helvetica,sans-Serif" font-size="14.00">cleaned_menu_item</text>
<polyline fill="none" stroke="black" points="155,-73.5 423,-73.5 "/>
<text text-anchor="middle" x="289" y="-58.3" font-family="Helvetica,sans-Serif" font-size="14.00">sqlite://database.db/cleaned_menu_item</text>
</g>
<!-- MenuItemDataCleanupWithSQL&#45;&gt;cleaned_menu_item -->
<g id="edge6" class="edge">
<title>MenuItemDataCleanupWithSQL&#45;&gt;cleaned_menu_item</title>
<path fill="none" stroke="black" d="M289,-133.37C289,-125.15 289,-115.66 289,-106.73"/>
<polygon fill="black" stroke="black" points="292.5,-106.61 289,-96.61 285.5,-106.61 292.5,-106.61"/>
</g>
<!-- MenuItem.csv -->
<g id="node4" class="node">
<title>MenuItem.csv</title>
<path fill="#ffffcc" stroke="black" d="M280.5,-548.5C280.5,-548.5 435.5,-548.5 435.5,-548.5 441.5,-548.5 447.5,-554.5 447.5,-560.5 447.5,-560.5 447.5,-582.5 447.5,-582.5 447.5,-588.5 441.5,-594.5 435.5,-594.5 435.5,-594.5 280.5,-594.5 280.5,-594.5 274.5,-594.5 268.5,-588.5 268.5,-582.5 268.5,-582.5 268.5,-560.5 268.5,-560.5 268.5,-554.5 274.5,-548.5 280.5,-548.5"/>
<text text-anchor="middle" x="358" y="-579.3" font-family="Helvetica,sans-Serif" font-size="14.00">MenuItem.csv</text>
<polyline fill="none" stroke="black" points="268.5,-571.5 447.5,-571.5 "/>
<text text-anchor="middle" x="358" y="-556.3" font-family="Helvetica,sans-Serif" font-size="14.00">file://project/MenuItem.csv</text>
</g>
<!-- MenuItem.csv&#45;&gt;MenuItemDataCleanupWithOpenRefine -->
<g id="edge2" class="edge">
<title>MenuItem.csv&#45;&gt;MenuItemDataCleanupWithOpenRefine</title>
<path fill="none" stroke="black" d="M358,-548.37C358,-540.15 358,-530.66 358,-521.73"/>
<polygon fill="black" stroke="black" points="361.5,-521.61 358,-511.61 354.5,-521.61 361.5,-521.61"/>
</g>
<!-- cleaned_menu_item_with_or.csv&#45;&gt;LoadMenuItemDataIntoSqlite -->
<g id="edge4" class="edge">
<title>cleaned_menu_item_with_or.csv&#45;&gt;LoadMenuItemDataIntoSqlite</title>
<path fill="none" stroke="black" d="M351.99,-382.37C349.73,-374.06 347.12,-364.45 344.67,-355.43"/>
<polygon fill="black" stroke="black" points="348,-354.34 342,-345.61 341.25,-356.17 348,-354.34"/>
</g>
<!-- menu_item&#45;&gt;MenuItemDataCleanupWithSQL -->
<g id="edge7" class="edge">
<title>menu_item&#45;&gt;MenuItemDataCleanupWithSQL</title>
<path fill="none" stroke="black" d="M323.16,-216.37C318.13,-207.71 312.28,-197.62 306.86,-188.27"/>
<polygon fill="black" stroke="black" points="309.87,-186.5 301.83,-179.61 303.82,-190.01 309.87,-186.5"/>
</g>
<!-- cleaned_menu_item_output_port -->
<g id="node11" class="node">
<title>cleaned_menu_item_output_port</title>
<ellipse fill="#ffffff" stroke="black" cx="289" cy="-7" rx="7" ry="7"/>
</g>
<!-- cleaned_menu_item&#45;&gt;cleaned_menu_item_output_port -->
<g id="edge10" class="edge">
<title>cleaned_menu_item&#45;&gt;cleaned_menu_item_output_port</title>
<path fill="none" stroke="black" d="M289,-50.3C289,-41.68 289,-32 289,-24.08"/>
<polygon fill="black" stroke="black" points="292.5,-24.05 289,-14.05 285.5,-24.05 292.5,-24.05"/>
</g>
<!-- data_load_script -->
<g id="node8" class="node">
<title>data_load_script</title>
<path fill="#fcfcfc" stroke="black" d="M161.5,-423.5C161.5,-423.5 66.5,-423.5 66.5,-423.5 60.5,-423.5 54.5,-417.5 54.5,-411.5 54.5,-411.5 54.5,-399.5 54.5,-399.5 54.5,-393.5 60.5,-387.5 66.5,-387.5 66.5,-387.5 161.5,-387.5 161.5,-387.5 167.5,-387.5 173.5,-393.5 173.5,-399.5 173.5,-399.5 173.5,-411.5 173.5,-411.5 173.5,-417.5 167.5,-423.5 161.5,-423.5"/>
<text text-anchor="middle" x="114" y="-401.8" font-family="Helvetica,sans-Serif" font-size="14.00">data_load_script</text>
</g>
<!-- data_load_script&#45;&gt;LoadMenuItemDataIntoSqlite -->
<g id="edge5" class="edge">
<title>data_load_script&#45;&gt;LoadMenuItemDataIntoSqlite</title>
<path fill="none" stroke="black" d="M160.81,-387.42C191.27,-376.31 231.57,-361.6 265.83,-349.1"/>
<polygon fill="black" stroke="black" points="267.13,-352.35 275.32,-345.64 264.73,-345.78 267.13,-352.35"/>
</g>
<!-- data_cleanup_sql_script -->
<g id="node9" class="node">
<title>data_cleanup_sql_script</title>
<path fill="#fcfcfc" stroke="black" d="M200.5,-257.5C200.5,-257.5 57.5,-257.5 57.5,-257.5 51.5,-257.5 45.5,-251.5 45.5,-245.5 45.5,-245.5 45.5,-233.5 45.5,-233.5 45.5,-227.5 51.5,-221.5 57.5,-221.5 57.5,-221.5 200.5,-221.5 200.5,-221.5 206.5,-221.5 212.5,-227.5 212.5,-233.5 212.5,-233.5 212.5,-245.5 212.5,-245.5 212.5,-251.5 206.5,-257.5 200.5,-257.5"/>
<text text-anchor="middle" x="129" y="-235.8" font-family="Helvetica,sans-Serif" font-size="14.00">data_cleanup_sql_script</text>
</g>
<!-- data_cleanup_sql_script&#45;&gt;MenuItemDataCleanupWithSQL -->
<g id="edge8" class="edge">
<title>data_cleanup_sql_script&#45;&gt;MenuItemDataCleanupWithSQL</title>
<path fill="none" stroke="black" d="M162.93,-221.32C184.24,-210.53 212.17,-196.4 236.32,-184.17"/>
<polygon fill="black" stroke="black" points="238.03,-187.23 245.37,-179.59 234.87,-180.98 238.03,-187.23"/>
</g>
<!-- MenuItem.csv_input_port -->
<g id="node10" class="node">
<title>MenuItem.csv_input_port</title>
<ellipse fill="#ffffff" stroke="black" cx="358" cy="-638" rx="7" ry="7"/>
</g>
<!-- MenuItem.csv_input_port&#45;&gt;MenuItem.csv -->
<g id="edge9" class="edge">
<title>MenuItem.csv_input_port&#45;&gt;MenuItem.csv</title>
<path fill="none" stroke="black" d="M358,-630.58C358,-624.38 358,-614.52 358,-604.66"/>
<polygon fill="black" stroke="black" points="361.5,-604.55 358,-594.55 354.5,-604.55 361.5,-604.55"/>
</g>
</g>
</svg>