<svg width="586pt" height="349pt"
 viewBox="0.00 0.00 586.00 349.00" xmlns="http://www.w3.org/2000/svg" xmlns:xlink="http://www.w3.org/1999/xlink">
<g id="graph0" class="graph" transform="scale(1 1) rotate(0) translate(4 345)">
<title>Workflow</title>
<polygon fill="white" stroke="transparent" points="-4,4 -4,-345 582,-345 582,4 -4,4"/>
<text text-anchor="middle" x="289" y="-322.6" font-family="Helvetica,sans-Serif" font-size="18.00">MenuDataCleanupWorkflow</text>
<g id="clust1" class="cluster">
<title>cluster_workflow_box_outer</title>
<polygon fill="none" stroke="black" stroke-width="2" points="8,-34 8,-279 570,-279 570,-34 8,-34"/>
</g>
<g id="clust2" class="cluster">
<title>cluster_workflow_box_inner</title>
<polygon fill="none" stroke="black" stroke-width="0" points="16,-42 16,-271 562,-271 562,-42 16,-42"/>
</g>
<!-- MenuDataCleanupWithOpenRefine -->
<g id="node1" class="node">
<title>MenuDataCleanupWithOpenRefine</title>
<polygon fill="#ccffcc" stroke="black" points="160,-216.5 160,-262.5 418,-262.5 418,-216.5 160,-216.5"/>
<text text-anchor="middle" x="289" y="-247.3" font-family="Helvetica,sans-Serif" font-size="14.00">MenuDataCleanupWithOpenRefine</text>
<polyline fill="none" stroke="black" points="160,-239.5 418,-239.5 "/>
<text text-anchor="middle" x="289" y="-224.3" font-family="Helvetica,sans-Serif" font-size="14.00">Clean Menu dataset using OpenRefine</text>
</g>
<!-- LoadMenuDataIntoSqlite -->
<g id="node2" class="node">
<title>LoadMenuDataIntoSqlite</title>
<polygon fill="#ccffcc" stroke="black" points="82,-133.5 82,-179.5 496,-179.5 496,-133.5 82,-133.5"/>
<text text-anchor="middle" x="289" y="-164.3" font-family="Helvetica,sans-Serif" font-size="14.00">LoadMenuDataIntoSqlite</text>
<polyline fill="none" stroke="black" points="82,-156.5 496,-156.5 "/>
<text text-anchor="middle" x="289" y="-141.3" font-family="Helvetica,sans-Serif" font-size="14.00">Use SQLLite to load cleaned_menu_with_or.csv into table menu</text>
</g>
<!-- MenuDataCleanupWithOpenRefine&#45;&gt;LoadMenuDataIntoSqlite -->
<g id="edge1" class="edge">
<title>MenuDataCleanupWithOpenRefine&#45;&gt;LoadMenuDataIntoSqlite</title>
<path fill="none" stroke="black" d="M289,-216.37C289,-208.15 289,-198.66 289,-189.73"/>
<polygon fill="black" stroke="black" points="292.5,-189.61 289,-179.61 285.5,-189.61 292.5,-189.61"/>
</g>
<!-- MenuDataCleanupWithSQL -->
<g id="node3" class="node">
<title>MenuDataCleanupWithSQL</title>
<polygon fill="#ccffcc" stroke="black" points="24,-50.5 24,-96.5 554,-96.5 554,-50.5 24,-50.5"/>
<text text-anchor="middle" x="289" y="-81.3" font-family="Helvetica,sans-Serif" font-size="14.00">MenuDataCleanupWithSQL</text>
<polyline fill="none" stroke="black" points="24,-73.5 554,-73.5 "/>
<text text-anchor="middle" x="289" y="-58.3" font-family="Helvetica,sans-Serif" font-size="14.00">Perform SQL operations to check integrity constraints and functional dependencies</text>
</g>
<!-- LoadMenuDataIntoSqlite&#45;&gt;MenuDataCleanupWithSQL -->
<g id="edge2" class="edge">
<title>LoadMenuDataIntoSqlite&#45;&gt;MenuDataCleanupWithSQL</title>
<path fill="none" stroke="black" d="M289,-133.37C289,-125.15 289,-115.66 289,-106.73"/>
<polygon fill="black" stroke="black" points="292.5,-106.61 289,-96.61 285.5,-106.61 292.5,-106.61"/>
</g>
<!-- cleaned_menu_output_port -->
<g id="node5" class="node">
<title>cleaned_menu_output_port</title>
<ellipse fill="#ffffff" stroke="black" cx="289" cy="-7" rx="7" ry="7"/>
</g>
<!-- MenuDataCleanupWithSQL&#45;&gt;cleaned_menu_output_port -->
<g id="edge4" class="edge">
<title>MenuDataCleanupWithSQL&#45;&gt;cleaned_menu_output_port</title>
<path fill="none" stroke="black" d="M289,-50.3C289,-41.68 289,-32 289,-24.08"/>
<polygon fill="black" stroke="black" points="292.5,-24.05 289,-14.05 285.5,-24.05 292.5,-24.05"/>
</g>
<!-- Menu.csv_input_port -->
<g id="node4" class="node">
<title>Menu.csv_input_port</title>
<ellipse fill="#ffffff" stroke="black" cx="289" cy="-306" rx="7" ry="7"/>
</g>
<!-- Menu.csv_input_port&#45;&gt;MenuDataCleanupWithOpenRefine -->
<g id="edge3" class="edge">
<title>Menu.csv_input_port&#45;&gt;MenuDataCleanupWithOpenRefine</title>
<path fill="none" stroke="black" d="M289,-298.58C289,-292.38 289,-282.52 289,-272.66"/>
<polygon fill="black" stroke="black" points="292.5,-272.55 289,-262.55 285.5,-272.55 292.5,-272.55"/>
</g>
</g>
</svg>